<svg width="191" height="52" viewBox="0 0 191 52" fill="none" xmlns="http://www.w3.org/2000/svg">
<g clip-path="url(#clip0_38697_401)">
<path d="M54.4526 0.733398H58.2447V51.6667H54.4526V0.733398Z" fill="#ED135C"/>
<path d="M54.4526 0.733398H58.2447V51.6667H54.4526V0.733398Z" fill="#ED135C"/>
<path d="M14.4365 25.1001H32.8645V28.6001H14.4365V25.1001Z" fill="#ED135C"/>
<path d="M14.4365 25.1001H32.8645V28.6001H14.4365V25.1001Z" fill="#ED135C"/>
<path d="M0.332642 0.733398V51.6667H4.1247V28.6001V25.1001V4.20007H43.276V0.733398" fill="#ED135C"/>
<path d="M0.332642 0.733398V51.6667H4.1247V28.6001V25.1001V4.20007H43.276V0.733398H0.332642Z" fill="#ED135C"/>
<path d="M171.807 0.533447H141.737V51.4668H145.529V32.4668V28.9668V4.03345H171.541C180.688 4.03345 186.942 8.26678 186.942 16.3334V16.4668C186.942 24.0334 180.555 28.9668 171.108 28.9668H159.2V32.4668H170.875C181.487 32.4668 190.701 26.9334 190.701 16.2334V16.1001C190.701 6.26678 183.017 0.533447 171.807 0.533447Z" fill="#ED135C"/>
<path d="M119.749 28.9666L102.119 0.333252H98.4937L67.0928 51.6333H71.0179L100.223 4.46659L115.458 28.9666" fill="#ED135C"/>
<path d="M119.749 28.9666L102.119 0.333252H98.4937L67.0928 51.6333H71.0179L100.223 4.46659L115.458 28.9666H119.749Z" fill="#ED135C"/>
<path d="M125.537 38.3999H121.313L129.529 51.6332H133.653" fill="#ED135C"/>
<path d="M125.537 38.3999H121.313L129.529 51.6332H133.653L125.504 38.3999H125.537Z" fill="#ED135C"/>
</g>
<defs>
<clipPath id="clip0_38697_401">
<rect width="191" height="52" fill="white"/>
</clipPath>
</defs>
</svg>
